#!OML:ASF E:\motion texture\Top Level 1\Subject 1\Session 1\male.ASF
:FULLY-SPECIFIED
:DEGREES
491
root -38.0688 17.7298 4.01428 16.1724 -82.2553 -10.9643
lowerback -2.27176 2.18658 0.989864
upperback -1.1101 2.86122 2.1854
thorax 0.0714578 1.42143 1.74881
lowerneck -16.5502 -0.284551 -3.92951
upperneck 18.41 -0.792951 6.1434
head 8.50033 -0.0429582 2.62654
rclavicle -1.8487e-014 -2.46493e-014
rhumerus 7.30781 27.9903 -75.9306
rradius 93.5625
rwrist 18.6585
rhand -17.8481 -18.5672
rfingers 7.12502
rthumb 8.41691 -48.3795
lclavicle -1.8487e-014 -2.46493e-014
lhumerus -4.92168 -19.844 93.5342
lradius 76.1663
lwrist 0.185158
lhand -8.74672 29.3152
lfingers 7.12502
lthumb 17.1902 58.5748
rfemur -28.8126 -2.11348 17.9868
rtibia 20.6962
rfoot -1.94402 -15.8293
rtoes 11.3452
lfemur -2.98392 -7.41493 -16.3363
ltibia 32.4978
lfoot -10.0779 -3.99971
ltoes -21.105
492
root -38.2272 17.7319 3.98134 17.7461 -82.0939 -12.5826
lowerback -2.23018 2.17009 1.22618
upperback -1.1232 2.83319 2.28622
thorax 0.0417626 1.40568 1.71759
lowerneck -16.5139 -0.334051 -3.93734
upperneck 18.3424 -0.866596 6.18692
head 8.47543 -0.0744197 2.63243
rclavicle -4.34841e-014 7.95139e-015
rhumerus 8.37312 27.9462 -75.4186
rradius 93.5748
rwrist 18.6921
rhand -18.1439 -18.6189
rfingers 7.12502
rthumb 8.13148 -48.4425
lclavicle -4.34841e-014 7.95139e-015
lhumerus -3.91561 -20.0213 93.5421
lradius 76.4276
lwrist 0.948275
lhand -8.64301 29.5971
lfingers 7.12502
lthumb 17.2901 58.848
rfemur -28.5599 -1.92616 18.4247
rtibia 20.9489
rfoot -1.91257 -15.4128
rtoes 11.9015
lfemur -3.45766 -7.40684 -15.8794
ltibia 33.7678
lfoot -9.37861 -4.17095
ltoes -21.4332
493
root -38.3856 17.7352 3.94818 19.3591 -81.9342 -14.2445
lowerback -2.18437 2.15357 1.47231
upperback -1.13483 2.80514 2.39089
thorax 0.011321 1.38972 1.68478
lowerneck -16.4801 -0.382476 -3.94307
upperneck 18.2798 -0.939696 6.23141
head 8.45273 -0.105403 2.63848
rclavicle 5.34234e-015 -1.19271e-014
rhumerus 9.44702 27.8796 -74.9136
rradius 93.5449
rwrist 18.7175
rhand -18.4725 -18.6888
rfingers 7.12502
rthumb 7.81431 -48.5244
lclavicle 5.34234e-015 -1.19271e-014
lhumerus -2.89756 -20.1746 93.5585
lradius 76.6305
lwrist 1.72897
lhand -8.54282 29.9032
lfingers 7.12502
lthumb 17.3865 59.1456
rfemur -28.2904 -1.76714 18.8993
rtibia 21.2363
rfoot -1.90775 -14.9787
rtoes 12.4735
lfemur -3.98501 -7.38469 -15.4108
ltibia 35.071
lfoot -8.64749 -4.32056
ltoes -21.7071
494
root -38.5438 17.7396 3.91489 21.0126 -81.7795 -15.9517
lowerback -2.13181 2.13817 1.72771
upperback -1.14534 2.77872 2.49927
thorax -0.0216646 1.37434 1.65048
lowerneck -16.4475 -0.429506 -3.94491
upperneck 18.2222 -1.01162 6.27365
head 8.43187 -0.135838 2.64337
rclavicle -1.85615e-014 -1.43125e-014
rhumerus 10.525 27.7918 -74.4181
rradius 93.4722
rwrist 18.7359
rhand -18.8328 -18.7759
rfingers 7.12502
rthumb 7.46654 -48.6241
lclavicle -1.85615e-014 -1.43125e-014
lhumerus -1.87194 -20.3033 93.5856
lradius 76.7743
lwrist 2.52398
lhand -8.44902 30.2311
lfingers 7.12502
lthumb 17.4768 59.4655
rfemur -28.0022 -1.62842 19.4065
rtibia 21.5481
rfoot -1.92722 -14.5339
rtoes 13.0519
lfemur -4.56375 -7.34474 -14.9329
ltibia 36.4021
lfoot -7.89646 -4.44483
ltoes -21.9329
495
root -38.7017 17.7449 3.88164 22.6678 -81.629 -17.6641
lowerback -2.07418 2.12278 1.988
upperback -1.15395 2.75257 2.60934
thorax -0.0555479 1.35891 1.61514
lowerneck -16.4183 -0.475148 -3.9444
upperneck 18.1704 -1.08248 6.31603
head 8.41353 -0.165589 2.64818
rclavicle -3.23025e-016 -2.78299e-014
rhumerus 11.6067 27.6837 -73.9338
rradius 93.3555
rwrist 18.7482
rhand -19.2238 -18.8776
rfingers 7.12502
rthumb 7.08909 -48.7389
lclavicle -3.23025e-016 -2.78299e-014
lhumerus -0.83901 -20.4075 93.6234
lradius 76.8573
lwrist 3.33423
lhand -8.35948 30.5849
lfingers 7.12502
lthumb 17.5629 59.8116
rfemur -27.6929 -1.51202 19.9367
rtibia 21.8728
rfoot -1.96829 -14.0835
rtoes 13.6322
lfemur -5.19225 -7.28978 -14.4556
ltibia 37.7528
lfoot -7.13294 -4.54301
ltoes -22.1052
496
root -38.8593 17.7513 3.84849 24.3417 -81.4833 -19.3973
lowerback -2.01164 2.10693 2.25443
upperback -1.16201 2.72612 2.72135
thorax -0.0915759 1.3431 1.57828
lowerneck -16.3878 -0.517979 -3.93856
upperneck 18.1225 -1.1507 6.35656
head 8.39618 -0.194004 2.65185
rclavicle -2.03257e-014 -3.97569e-015
rhumerus 12.687 27.5595 -73.4656
rradius 93.1939
rwrist 18.7583
rhand -19.6449 -18.9944
rfingers 7.12502
rthumb 6.68262 -48.869
lclavicle -2.03257e-014 -3.97569e-015
lhumerus 0.194473 -20.4845 93.6726
lradius 76.8806
lwrist 4.15822
lhand -8.28691 30.9527
lfingers 7.12502
lthumb 17.6328 60.1732
rfemur -27.3632 -1.40944 20.4876
rtibia 22.2018
rfoot -2.03125 -13.6367
rtoes 14.2135
lfemur -5.86992 -7.21853 -13.9783
ltibia 39.1156
lfoot -6.36831 -4.61244
ltoes -22.225
497
root -39.0163 17.7586 3.81547 26.0264 -81.3441 -21.1426
lowerback -1.94482 2.09088 2.52407
upperback -1.1676 2.69974 2.83497
thorax -0.127559 1.32715 1.54131
lowerneck -16.3596 -0.558103 -3.92749
upperneck 18.0792 -1.21626 6.39491
head 8.3806 -0.221025 2.65432
rclavicle -3.598e-014 -1.59028e-015
rhumerus 13.7663 27.4198 -73.0136
rradius 92.9868
rwrist 18.7676
rhand -20.0917 -19.1274
rfingers 7.12502
rthumb 6.25132 -49.0152
lclavicle -3.598e-014 -1.59028e-015
lhumerus 1.23142 -20.5339 93.7332
lradius 76.8421
lwrist 4.99466
lhand -8.22132 31.3409
lfingers 7.12502
lthumb 17.6959 60.5557
rfemur -27.0119 -1.31243 21.0527
rtibia 22.5249
rfoot -2.1153 -13.2027
rtoes 14.796
lfemur -6.59598 -7.12895 -13.5045
ltibia 40.4845
lfoot -5.61586 -4.65356
ltoes -22.2993
